<svg width="131.511" height="23.184" viewBox="0 0 131.511 23.184" xmlns="http://www.w3.org/2000/svg"><g id="svgGroup" stroke-linecap="round" fill-rule="nonzero" font-size="9pt" stroke="#000000" stroke-width="0.5" fill="#000000" style="stroke:#000000;stroke-width:0.5;fill:#000000"><path d="M 56.258 0.529 Q 56.418 0.369 59.978 0.369 A 44.064 44.064 0 0 1 65.208 0.613 A 17.456 17.456 0 0 1 65.478 0.649 A 5.833 5.833 0 0 1 67.802 1.28 A 0.633 0.633 0 0 1 67.858 1.329 Q 68.098 1.569 68.318 1.889 A 0.867 0.867 0 0 1 68.491 2.38 A 0.659 0.659 0 0 1 68.478 2.509 Q 68.418 2.809 67.998 3.029 Q 67.578 3.249 66.498 3.249 Q 66.298 3.249 66.118 3.229 Q 65.938 3.209 65.738 3.209 Q 65.298 3.209 64.938 3.189 Q 64.578 3.169 64.258 3.169 Q 62.738 3.169 62.058 3.849 Q 61.378 4.529 61.018 6.089 Q 60.618 7.489 60.498 9.209 Q 60.378 10.809 60.578 11.009 Q 60.618 11.049 60.858 11.049 Q 61.098 11.049 61.578 10.989 Q 62.058 10.929 62.738 10.769 Q 63.898 10.569 65.338 10.389 Q 66.778 10.209 68.538 10.009 Q 70.098 9.889 70.378 9.529 Q 70.698 9.169 71.138 9.169 Q 71.738 9.169 72.298 9.689 Q 72.858 10.209 72.858 10.409 Q 72.858 10.609 72.298 11.129 Q 71.898 11.489 70.698 11.709 Q 69.498 11.929 68.098 12.029 Q 66.698 12.129 65.418 12.169 Q 64.138 12.209 63.578 12.209 A 24.288 24.288 0 0 0 60.785 12.312 A 0.986 0.986 0 0 0 60.418 12.409 Q 60.218 12.569 60.098 16.529 Q 59.978 20.449 60.338 20.649 Q 60.498 20.729 60.778 20.729 Q 61.098 20.729 61.538 20.669 Q 61.978 20.609 62.578 20.529 Q 63.258 20.409 64.378 20.189 Q 65.498 19.969 66.658 19.669 Q 67.818 19.369 68.858 19.049 Q 69.898 18.729 70.378 18.489 Q 70.978 18.289 70.978 18.109 Q 70.978 17.929 70.458 17.369 Q 70.098 16.929 69.698 16.509 Q 69.298 16.089 68.858 15.609 Q 68.098 14.769 68.178 14.769 Q 68.258 14.769 68.518 14.869 Q 68.778 14.969 69.098 15.109 Q 69.418 15.249 69.698 15.369 Q 69.978 15.489 70.058 15.529 Q 70.418 15.689 70.858 16.069 Q 71.298 16.449 71.678 16.909 Q 72.058 17.369 72.318 17.849 Q 72.578 18.329 72.578 18.769 Q 72.578 19.609 72.058 20.089 Q 71.778 20.329 71.458 20.529 Q 71.138 20.729 70.618 20.949 Q 70.098 21.169 69.278 21.389 Q 68.458 21.609 67.218 21.889 Q 65.978 22.169 65.178 22.349 Q 64.378 22.529 63.978 22.649 Q 63.218 22.889 61.418 22.889 Q 60.618 22.889 60.138 22.829 Q 59.658 22.769 59.338 22.529 Q 59.018 22.289 58.818 21.849 Q 58.618 21.409 58.378 20.649 Q 58.218 20.169 58.218 19.269 Q 58.218 18.369 58.298 17.009 Q 58.378 15.649 58.418 14.749 Q 58.458 13.849 58.498 13.329 Q 58.498 12.609 58.378 12.449 Q 58.258 12.289 57.538 12.209 Q 57.018 12.169 56.698 12.129 Q 56.378 12.089 56.298 11.969 Q 56.218 11.849 56.458 11.729 Q 56.538 11.689 56.678 11.649 Q 56.818 11.609 57.018 11.569 Q 57.498 11.489 57.838 11.409 Q 58.178 11.329 58.378 11.209 Q 58.778 10.969 59.178 8.769 Q 59.778 5.569 60.418 4.229 Q 61.058 2.889 61.858 2.609 Q 62.338 2.409 62.338 2.209 Q 62.338 2.089 62.198 2.029 Q 62.058 1.969 61.678 1.869 Q 61.298 1.769 60.578 1.649 Q 59.858 1.529 58.698 1.369 A 11.827 11.827 0 0 1 56.369 0.937 A 0.477 0.477 0 0 1 56.218 0.849 Q 56.098 0.689 56.258 0.529 Z M 95.658 0.529 Q 95.818 0.369 99.378 0.369 A 44.064 44.064 0 0 1 104.608 0.613 A 17.456 17.456 0 0 1 104.878 0.649 A 5.833 5.833 0 0 1 107.202 1.28 A 0.633 0.633 0 0 1 107.258 1.329 Q 107.498 1.569 107.718 1.889 A 0.867 0.867 0 0 1 107.891 2.38 A 0.659 0.659 0 0 1 107.878 2.509 Q 107.818 2.809 107.398 3.029 Q 106.978 3.249 105.898 3.249 Q 105.698 3.249 105.518 3.229 Q 105.338 3.209 105.138 3.209 Q 104.698 3.209 104.338 3.189 Q 103.978 3.169 103.658 3.169 Q 102.138 3.169 101.458 3.849 Q 100.778 4.529 100.418 6.089 Q 100.018 7.489 99.898 9.209 Q 99.778 10.809 99.978 11.009 Q 100.018 11.049 100.258 11.049 Q 100.498 11.049 100.978 10.989 Q 101.458 10.929 102.138 10.769 Q 103.298 10.569 104.738 10.389 Q 106.178 10.209 107.938 10.009 Q 109.498 9.889 109.778 9.529 Q 110.098 9.169 110.538 9.169 Q 111.138 9.169 111.698 9.689 Q 112.258 10.209 112.258 10.409 Q 112.258 10.609 111.698 11.129 Q 111.298 11.489 110.098 11.709 Q 108.898 11.929 107.498 12.029 Q 106.098 12.129 104.818 12.169 Q 103.538 12.209 102.978 12.209 A 24.288 24.288 0 0 0 100.185 12.312 A 0.986 0.986 0 0 0 99.818 12.409 Q 99.618 12.569 99.498 16.529 Q 99.378 20.449 99.738 20.649 Q 99.898 20.729 100.178 20.729 Q 100.498 20.729 100.938 20.669 Q 101.378 20.609 101.978 20.529 Q 102.658 20.409 103.778 20.189 Q 104.898 19.969 106.058 19.669 Q 107.218 19.369 108.258 19.049 Q 109.298 18.729 109.778 18.489 Q 110.378 18.289 110.378 18.109 Q 110.378 17.929 109.858 17.369 Q 109.498 16.929 109.098 16.509 Q 108.698 16.089 108.258 15.609 Q 107.498 14.769 107.578 14.769 Q 107.658 14.769 107.918 14.869 Q 108.178 14.969 108.498 15.109 Q 108.818 15.249 109.098 15.369 Q 109.378 15.489 109.458 15.529 Q 109.818 15.689 110.258 16.069 Q 110.698 16.449 111.078 16.909 Q 111.458 17.369 111.718 17.849 Q 111.978 18.329 111.978 18.769 Q 111.978 19.609 111.458 20.089 Q 111.178 20.329 110.858 20.529 Q 110.538 20.729 110.018 20.949 Q 109.498 21.169 108.678 21.389 Q 107.858 21.609 106.618 21.889 Q 105.378 22.169 104.578 22.349 Q 103.778 22.529 103.378 22.649 Q 102.618 22.889 100.818 22.889 Q 100.018 22.889 99.538 22.829 Q 99.058 22.769 98.738 22.529 Q 98.418 22.289 98.218 21.849 Q 98.018 21.409 97.778 20.649 Q 97.618 20.169 97.618 19.269 Q 97.618 18.369 97.698 17.009 Q 97.778 15.649 97.818 14.749 Q 97.858 13.849 97.898 13.329 Q 97.898 12.609 97.778 12.449 Q 97.658 12.289 96.938 12.209 Q 96.418 12.169 96.098 12.129 Q 95.778 12.089 95.698 11.969 Q 95.618 11.849 95.858 11.729 Q 95.938 11.689 96.078 11.649 Q 96.218 11.609 96.418 11.569 Q 96.898 11.489 97.238 11.409 Q 97.578 11.329 97.778 11.209 Q 98.178 10.969 98.578 8.769 Q 99.178 5.569 99.818 4.229 Q 100.458 2.889 101.258 2.609 Q 101.738 2.409 101.738 2.209 Q 101.738 2.089 101.598 2.029 Q 101.458 1.969 101.078 1.869 Q 100.698 1.769 99.978 1.649 Q 99.258 1.529 98.098 1.369 A 11.827 11.827 0 0 1 95.769 0.937 A 0.477 0.477 0 0 1 95.618 0.849 Q 95.498 0.689 95.658 0.529 Z M 29.778 21.129 Q 28.898 21.929 27.938 22.449 Q 26.978 22.969 25.798 23.029 Q 24.618 23.089 24.258 23.089 Q 22.858 23.089 22.158 22.729 Q 21.458 22.369 20.758 21.709 Q 20.058 21.049 19.618 19.969 Q 19.178 18.889 19.058 17.729 Q 18.938 16.569 18.938 15.769 Q 18.938 14.649 19.138 12.849 Q 19.338 11.049 20.078 8.149 A 36.605 36.605 0 0 1 21.158 4.494 A 8.013 8.013 0 0 1 21.298 4.149 Q 21.778 3.049 22.018 2.909 Q 22.258 2.769 22.378 2.769 Q 22.458 2.769 22.498 2.789 Q 22.538 2.809 22.538 2.929 Q 22.538 3.169 22.338 3.829 Q 22.138 4.489 21.958 5.769 Q 21.778 7.049 21.718 7.229 Q 21.658 7.409 21.498 8.749 Q 21.338 10.089 21.178 11.829 Q 21.018 13.569 21.018 14.849 Q 21.018 15.249 21.058 16.209 Q 21.098 17.169 21.478 18.389 Q 21.858 19.609 22.618 20.389 Q 23.378 21.169 23.558 21.209 Q 23.738 21.249 24.758 21.249 L 26.218 21.249 Q 26.818 21.169 27.938 20.169 Q 29.058 19.169 29.938 17.629 Q 30.818 16.089 31.198 14.429 Q 31.578 12.769 31.578 11.049 Q 31.578 10.649 31.518 9.369 Q 31.458 8.089 30.798 6.669 Q 30.138 5.249 29.238 4.249 Q 28.338 3.249 27.178 2.709 Q 26.018 2.169 23.978 2.169 A 8.248 8.248 0 0 0 21.479 2.402 A 0.88 0.88 0 0 0 21.418 2.429 Q 20.898 2.689 20.378 2.689 Q 19.858 2.689 19.858 2.249 Q 19.858 1.809 20.178 1.529 Q 20.498 1.249 21.758 0.849 Q 23.018 0.449 23.818 0.409 Q 24.618 0.369 24.858 0.369 Q 25.938 0.369 27.078 0.709 Q 28.218 1.049 29.258 1.749 Q 30.298 2.449 31.058 3.369 Q 31.818 4.289 32.438 5.569 Q 33.058 6.849 33.318 8.029 Q 33.578 9.209 33.578 10.649 Q 33.578 11.329 33.478 12.949 Q 33.378 14.569 32.838 16.189 Q 32.298 17.809 31.458 19.069 Q 30.618 20.329 29.778 21.129 Z M 4.138 15.609 L 4.138 11.729 L 2.098 11.729 Q 1.058 11.729 0.578 11.609 Q 0.098 11.489 0.018 11.329 A 0.16 0.16 0 0 1 0 11.257 A 0.375 0.375 0 0 1 0.218 10.989 Q 0.498 10.809 0.978 10.689 A 4.209 4.209 0 0 1 2.227 10.468 A 2.62 2.62 0 0 1 2.318 10.469 A 4.715 4.715 0 0 0 2.48 10.472 A 3.061 3.061 0 0 0 3.318 10.369 Q 3.738 10.249 3.998 9.829 Q 4.258 9.409 4.338 8.369 A 47.256 47.256 0 0 1 4.808 4.157 A 5.65 5.65 0 0 1 5.178 2.769 Q 5.298 2.329 5.358 2.089 Q 5.418 1.849 5.278 1.709 Q 5.138 1.569 4.798 1.509 Q 4.458 1.449 3.778 1.369 Q 3.098 1.289 2.438 1.209 Q 1.778 1.129 1.238 1.049 Q 0.698 0.969 0.358 0.849 A 0.4 0.4 0 0 1 0.018 0.569 Q 0.018 0.249 1.298 0.129 Q 2.578 0.009 7.738 0.009 Q 12.898 0.009 13.218 0.329 Q 13.578 0.689 13.138 1.409 Q 13.018 1.769 12.798 1.909 Q 12.578 2.049 11.738 2.049 L 10.998 2.049 Q 10.578 2.049 10.018 2.009 Q 9.538 1.969 9.158 1.969 L 8.458 1.969 Q 7.538 1.969 7.218 2.089 Q 6.898 2.209 6.658 2.449 Q 6.378 2.729 6.178 3.469 Q 5.978 4.209 5.898 5.029 Q 5.818 5.849 5.778 6.629 Q 5.738 7.409 5.738 7.849 Q 5.738 9.649 5.938 9.769 Q 5.978 9.809 6.258 9.809 Q 6.698 9.809 7.618 9.729 Q 8.538 9.649 10.018 9.529 Q 11.938 9.369 13.038 9.269 Q 14.138 9.169 14.418 9.169 Q 14.978 9.169 15.358 9.469 Q 15.738 9.769 15.738 10.329 Q 15.738 10.809 15.338 11.169 Q 14.978 11.489 10.578 11.609 Q 6.218 11.729 5.978 11.849 A 0.477 0.477 0 0 0 5.853 12.265 A 3.5 3.5 0 0 0 5.898 12.769 Q 6.018 13.529 6.138 16.409 Q 6.258 19.289 6.378 20.609 Q 6.498 21.929 6.358 22.549 Q 6.218 23.169 5.658 23.169 Q 5.058 23.169 4.938 22.969 Q 4.858 22.849 4.738 22.429 Q 4.618 22.009 4.498 21.149 Q 4.378 20.289 4.278 18.929 Q 4.178 17.569 4.138 15.609 Z M 76.898 0.489 Q 77.378 0.969 77.998 2.089 Q 78.618 3.209 79.218 4.509 Q 79.818 5.809 80.298 7.029 Q 80.778 8.249 81.018 8.929 Q 81.418 10.129 81.698 10.909 Q 81.978 11.689 82.178 12.089 Q 82.498 12.849 82.498 13.469 Q 82.498 14.089 82.738 14.289 Q 82.938 14.449 83.138 15.289 Q 83.338 16.169 83.858 17.889 A 4.193 4.193 0 0 0 84.547 19.549 Q 84.606 19.591 84.658 19.569 Q 84.938 19.449 85.098 18.489 Q 85.298 17.489 85.498 17.009 Q 85.618 16.769 85.818 16.169 Q 86.018 15.569 86.258 14.649 Q 86.658 13.169 87.038 11.969 Q 87.418 10.769 87.738 9.809 A 2.833 2.833 0 0 0 87.901 9.082 A 0.117 0.117 0 0 0 87.818 8.929 A 0.02 0.02 0 0 1 87.795 8.906 A 0.703 0.703 0 0 1 87.938 8.649 Q 88.178 8.369 88.338 7.129 Q 88.458 6.329 88.678 5.589 Q 88.898 4.849 89.218 4.089 Q 89.298 3.849 89.438 3.369 Q 89.578 2.889 89.738 2.209 Q 90.058 0.769 90.298 0.529 Q 90.618 0.209 91.138 0.209 Q 91.618 0.209 91.958 0.609 A 0.792 0.792 0 0 1 92.123 1.139 A 2.659 2.659 0 0 1 91.938 2.009 Q 91.538 3.089 91.238 4.209 Q 90.938 5.329 90.458 6.849 Q 90.218 7.609 89.938 8.609 Q 89.658 9.609 89.338 10.849 Q 89.018 12.089 88.818 12.929 Q 88.618 13.769 88.458 14.209 Q 88.218 14.889 88.078 15.549 Q 87.938 16.209 87.858 16.849 Q 87.738 17.249 87.638 17.449 Q 87.538 17.649 87.438 17.809 Q 87.338 17.969 87.278 18.129 Q 87.218 18.289 87.218 18.649 Q 87.218 19.369 87.058 19.529 Q 86.898 19.689 86.458 20.969 Q 86.018 22.289 85.598 22.729 Q 85.178 23.169 84.498 23.169 Q 83.738 23.169 83.398 22.649 Q 83.058 22.129 82.818 21.529 Q 82.658 21.129 82.398 20.209 Q 82.138 19.289 81.778 17.769 Q 81.418 16.249 81.018 14.669 Q 80.618 13.089 80.178 11.569 Q 79.738 10.049 79.278 8.609 Q 78.818 7.169 78.338 5.969 Q 77.898 4.809 77.478 3.789 Q 77.058 2.769 76.698 1.889 Q 76.258 0.849 76.158 0.429 A 1.184 1.184 0 0 1 76.119 0.168 A 0.122 0.122 0 0 1 76.218 0.009 Q 76.418 0.009 76.898 0.489 Z M 37.258 12.569 Q 37.458 12.449 37.558 12.269 Q 37.658 12.089 37.718 11.729 Q 37.778 11.369 37.798 10.809 Q 37.818 10.249 37.818 9.329 Q 37.818 7.929 37.858 6.649 Q 37.898 5.369 37.978 4.129 A 23.453 23.453 0 0 0 38.069 2.346 A 1.607 1.607 0 0 0 37.938 1.449 A 0.235 0.235 0 0 1 37.854 1.29 A 0.257 0.257 0 0 1 38.018 1.089 Q 38.138 1.009 38.178 0.829 L 38.258 0.469 Q 38.298 0.289 38.378 0.149 Q 38.458 0.009 38.658 0.009 Q 39.058 0.009 39.058 0.329 Q 39.058 0.689 41.258 0.689 Q 41.898 0.689 42.798 0.769 Q 43.698 0.849 44.698 1.029 Q 45.698 1.209 46.678 1.509 Q 47.658 1.809 48.438 2.289 Q 49.218 2.769 49.718 3.449 Q 50.218 4.129 50.218 5.009 Q 50.218 6.049 49.658 6.929 Q 49.378 7.409 48.938 7.869 Q 48.498 8.329 48.078 8.669 Q 47.658 9.009 47.338 9.229 Q 47.018 9.449 46.938 9.449 A 6.496 6.496 0 0 0 45.618 10.188 A 52.243 52.243 0 0 0 45.458 10.289 Q 44.778 10.729 43.878 11.169 Q 42.978 11.609 41.818 12.169 A 12.569 12.569 0 0 0 39.685 13.336 A 0.332 0.332 0 0 0 39.538 13.529 Q 39.538 13.769 40.698 14.249 Q 41.258 14.489 42.178 14.849 Q 43.098 15.209 44.378 15.729 Q 45.618 16.249 46.358 16.569 Q 47.098 16.889 47.338 17.089 Q 47.818 17.449 48.218 17.449 Q 48.458 17.449 49.038 17.829 Q 49.618 18.209 50.278 18.729 Q 50.938 19.249 51.518 19.749 Q 52.098 20.249 52.298 20.449 Q 52.698 20.849 52.798 21.069 A 0.41 0.41 0 0 1 52.831 21.24 A 1.241 1.241 0 0 1 52.698 21.729 Q 52.458 22.609 51.898 22.609 Q 51.258 22.609 49.498 21.209 Q 48.618 20.529 47.918 20.009 Q 47.218 19.489 46.538 19.029 Q 45.858 18.569 45.078 18.149 Q 44.298 17.729 43.258 17.209 Q 41.978 16.569 41.178 16.229 Q 40.378 15.889 40.058 15.809 Q 39.938 15.769 39.778 15.769 Q 39.578 15.769 39.558 16.089 Q 39.538 16.409 39.538 17.369 Q 39.538 19.049 39.778 20.569 Q 39.898 21.369 39.938 21.869 A 3.892 3.892 0 0 1 39.951 22.178 A 1.748 1.748 0 0 1 39.898 22.649 Q 39.818 22.929 39.518 23.049 Q 39.218 23.169 38.858 23.169 Q 38.538 23.169 38.278 23.089 Q 38.018 23.009 37.898 22.849 Q 37.698 22.609 37.578 18.649 Q 37.458 14.809 37.138 14.369 Q 36.778 14.009 36.778 13.489 Q 36.778 12.969 37.258 12.569 Z M 39.178 4.489 Q 39.218 5.929 39.238 7.189 Q 39.258 8.449 39.278 9.389 Q 39.298 10.329 39.358 10.889 Q 39.418 11.449 39.538 11.449 Q 39.818 11.449 42.218 10.129 Q 44.618 8.809 46.138 7.609 Q 47.658 6.409 48.098 5.729 Q 48.418 5.129 48.418 4.949 Q 48.418 4.769 48.138 4.289 Q 47.658 3.609 46.678 3.069 Q 45.698 2.529 44.538 2.169 Q 43.378 1.809 42.238 1.609 Q 41.098 1.409 40.298 1.409 Q 39.698 1.409 39.458 1.529 Q 39.338 1.609 39.258 1.749 Q 39.178 1.889 39.138 2.189 A 3.954 3.954 0 0 0 39.111 2.696 A 9.049 9.049 0 0 0 39.118 3.029 Q 39.138 3.569 39.178 4.489 Z M 115.938 12.569 Q 116.138 12.449 116.238 12.269 Q 116.338 12.089 116.398 11.729 Q 116.458 11.369 116.478 10.809 Q 116.498 10.249 116.498 9.329 Q 116.498 7.929 116.538 6.649 Q 116.578 5.369 116.658 4.129 A 23.453 23.453 0 0 0 116.749 2.346 A 1.607 1.607 0 0 0 116.618 1.449 A 0.235 0.235 0 0 1 116.534 1.29 A 0.257 0.257 0 0 1 116.698 1.089 Q 116.818 1.009 116.858 0.829 L 116.938 0.469 Q 116.978 0.289 117.058 0.149 Q 117.138 0.009 117.338 0.009 Q 117.738 0.009 117.738 0.329 Q 117.738 0.689 119.938 0.689 Q 120.578 0.689 121.478 0.769 Q 122.378 0.849 123.378 1.029 Q 124.378 1.209 125.358 1.509 Q 126.338 1.809 127.118 2.289 Q 127.898 2.769 128.398 3.449 Q 128.898 4.129 128.898 5.009 Q 128.898 6.049 128.338 6.929 Q 128.058 7.409 127.618 7.869 Q 127.178 8.329 126.758 8.669 Q 126.338 9.009 126.018 9.229 Q 125.698 9.449 125.618 9.449 A 6.496 6.496 0 0 0 124.298 10.188 A 52.243 52.243 0 0 0 124.138 10.289 Q 123.458 10.729 122.558 11.169 Q 121.658 11.609 120.498 12.169 A 12.569 12.569 0 0 0 118.365 13.336 A 0.332 0.332 0 0 0 118.218 13.529 Q 118.218 13.769 119.378 14.249 Q 119.938 14.489 120.858 14.849 Q 121.778 15.209 123.058 15.729 Q 124.298 16.249 125.038 16.569 Q 125.778 16.889 126.018 17.089 Q 126.498 17.449 126.898 17.449 Q 127.138 17.449 127.718 17.829 Q 128.298 18.209 128.958 18.729 Q 129.618 19.249 130.198 19.749 Q 130.778 20.249 130.978 20.449 Q 131.378 20.849 131.478 21.069 A 0.41 0.41 0 0 1 131.511 21.24 A 1.241 1.241 0 0 1 131.378 21.729 Q 131.138 22.609 130.578 22.609 Q 129.938 22.609 128.178 21.209 Q 127.298 20.529 126.598 20.009 Q 125.898 19.489 125.218 19.029 Q 124.538 18.569 123.758 18.149 Q 122.978 17.729 121.938 17.209 Q 120.658 16.569 119.858 16.229 Q 119.058 15.889 118.738 15.809 Q 118.618 15.769 118.458 15.769 Q 118.258 15.769 118.238 16.089 Q 118.218 16.409 118.218 17.369 Q 118.218 19.049 118.458 20.569 Q 118.578 21.369 118.618 21.869 A 3.892 3.892 0 0 1 118.631 22.178 A 1.748 1.748 0 0 1 118.578 22.649 Q 118.498 22.929 118.198 23.049 Q 117.898 23.169 117.538 23.169 Q 117.218 23.169 116.958 23.089 Q 116.698 23.009 116.578 22.849 Q 116.378 22.609 116.258 18.649 Q 116.138 14.809 115.818 14.369 Q 115.458 14.009 115.458 13.489 Q 115.458 12.969 115.938 12.569 Z M 117.858 4.489 Q 117.898 5.929 117.918 7.189 Q 117.938 8.449 117.958 9.389 Q 117.978 10.329 118.038 10.889 Q 118.098 11.449 118.218 11.449 Q 118.498 11.449 120.898 10.129 Q 123.298 8.809 124.818 7.609 Q 126.338 6.409 126.778 5.729 Q 127.098 5.129 127.098 4.949 Q 127.098 4.769 126.818 4.289 Q 126.338 3.609 125.358 3.069 Q 124.378 2.529 123.218 2.169 Q 122.058 1.809 120.918 1.609 Q 119.778 1.409 118.978 1.409 Q 118.378 1.409 118.138 1.529 Q 118.018 1.609 117.938 1.749 Q 117.858 1.889 117.818 2.189 A 3.954 3.954 0 0 0 117.791 2.696 A 9.049 9.049 0 0 0 117.798 3.029 Q 117.818 3.569 117.858 4.489 Z"/></g></svg>