<svg width="251.986" height="23.19" viewBox="0 0 251.986 23.19" xmlns="http://www.w3.org/2000/svg"><g id="svgGroup" stroke-linecap="round" fill-rule="nonzero" font-size="9pt" stroke="#000000" stroke-width="0.5" fill="#000000" style="stroke:#000000;stroke-width:0.5;fill:#000000"><path d="M 100.369 0.529 Q 100.529 0.369 104.089 0.369 A 44.064 44.064 0 0 1 109.319 0.613 A 17.456 17.456 0 0 1 109.589 0.649 A 5.833 5.833 0 0 1 111.913 1.28 A 0.633 0.633 0 0 1 111.969 1.329 Q 112.209 1.569 112.429 1.889 A 0.867 0.867 0 0 1 112.602 2.38 A 0.659 0.659 0 0 1 112.589 2.509 Q 112.529 2.809 112.109 3.029 Q 111.689 3.249 110.609 3.249 Q 110.409 3.249 110.229 3.229 Q 110.049 3.209 109.849 3.209 Q 109.409 3.209 109.049 3.189 Q 108.689 3.169 108.369 3.169 Q 106.849 3.169 106.169 3.849 Q 105.489 4.529 105.129 6.089 Q 104.729 7.489 104.609 9.209 Q 104.489 10.809 104.689 11.009 Q 104.729 11.049 104.969 11.049 Q 105.209 11.049 105.689 10.989 Q 106.169 10.929 106.849 10.769 Q 108.009 10.569 109.449 10.389 Q 110.889 10.209 112.649 10.009 Q 114.209 9.889 114.489 9.529 Q 114.809 9.169 115.249 9.169 Q 115.849 9.169 116.409 9.689 Q 116.969 10.209 116.969 10.409 Q 116.969 10.609 116.409 11.129 Q 116.009 11.489 114.809 11.709 Q 113.609 11.929 112.209 12.029 Q 110.809 12.129 109.529 12.169 Q 108.249 12.209 107.689 12.209 A 24.288 24.288 0 0 0 104.896 12.312 A 0.986 0.986 0 0 0 104.529 12.409 Q 104.329 12.569 104.209 16.529 Q 104.089 20.449 104.449 20.649 Q 104.609 20.729 104.889 20.729 Q 105.209 20.729 105.649 20.669 Q 106.089 20.609 106.689 20.529 Q 107.369 20.409 108.489 20.189 Q 109.609 19.969 110.769 19.669 Q 111.929 19.369 112.969 19.049 Q 114.009 18.729 114.489 18.489 Q 115.089 18.289 115.089 18.109 Q 115.089 17.929 114.569 17.369 Q 114.209 16.929 113.809 16.509 Q 113.409 16.089 112.969 15.609 Q 112.209 14.769 112.289 14.769 Q 112.369 14.769 112.629 14.869 Q 112.889 14.969 113.209 15.109 Q 113.529 15.249 113.809 15.369 Q 114.089 15.489 114.169 15.529 Q 114.529 15.689 114.969 16.069 Q 115.409 16.449 115.789 16.909 Q 116.169 17.369 116.429 17.849 Q 116.689 18.329 116.689 18.769 Q 116.689 19.609 116.169 20.089 Q 115.889 20.329 115.569 20.529 Q 115.249 20.729 114.729 20.949 Q 114.209 21.169 113.389 21.389 Q 112.569 21.609 111.329 21.889 Q 110.089 22.169 109.289 22.349 Q 108.489 22.529 108.089 22.649 Q 107.329 22.889 105.529 22.889 Q 104.729 22.889 104.249 22.829 Q 103.769 22.769 103.449 22.529 Q 103.129 22.289 102.929 21.849 Q 102.729 21.409 102.489 20.649 Q 102.329 20.169 102.329 19.269 Q 102.329 18.369 102.409 17.009 Q 102.489 15.649 102.529 14.749 Q 102.569 13.849 102.609 13.329 Q 102.609 12.609 102.489 12.449 Q 102.369 12.289 101.649 12.209 Q 101.129 12.169 100.809 12.129 Q 100.489 12.089 100.409 11.969 Q 100.329 11.849 100.569 11.729 Q 100.649 11.689 100.789 11.649 Q 100.929 11.609 101.129 11.569 Q 101.609 11.489 101.949 11.409 Q 102.289 11.329 102.489 11.209 Q 102.889 10.969 103.289 8.769 Q 103.889 5.569 104.529 4.229 Q 105.169 2.889 105.969 2.609 Q 106.449 2.409 106.449 2.209 Q 106.449 2.089 106.309 2.029 Q 106.169 1.969 105.789 1.869 Q 105.409 1.769 104.689 1.649 Q 103.969 1.529 102.809 1.369 A 11.827 11.827 0 0 1 100.48 0.937 A 0.477 0.477 0 0 1 100.329 0.849 Q 100.209 0.689 100.369 0.529 Z M 139.769 0.529 Q 139.929 0.369 143.489 0.369 A 44.064 44.064 0 0 1 148.719 0.613 A 17.456 17.456 0 0 1 148.989 0.649 A 5.833 5.833 0 0 1 151.313 1.28 A 0.633 0.633 0 0 1 151.369 1.329 Q 151.609 1.569 151.829 1.889 A 0.867 0.867 0 0 1 152.002 2.38 A 0.659 0.659 0 0 1 151.989 2.509 Q 151.929 2.809 151.509 3.029 Q 151.089 3.249 150.009 3.249 Q 149.809 3.249 149.629 3.229 Q 149.449 3.209 149.249 3.209 Q 148.809 3.209 148.449 3.189 Q 148.089 3.169 147.769 3.169 Q 146.249 3.169 145.569 3.849 Q 144.889 4.529 144.529 6.089 Q 144.129 7.489 144.009 9.209 Q 143.889 10.809 144.089 11.009 Q 144.129 11.049 144.369 11.049 Q 144.609 11.049 145.089 10.989 Q 145.569 10.929 146.249 10.769 Q 147.409 10.569 148.849 10.389 Q 150.289 10.209 152.049 10.009 Q 153.609 9.889 153.889 9.529 Q 154.209 9.169 154.649 9.169 Q 155.249 9.169 155.809 9.689 Q 156.369 10.209 156.369 10.409 Q 156.369 10.609 155.809 11.129 Q 155.409 11.489 154.209 11.709 Q 153.009 11.929 151.609 12.029 Q 150.209 12.129 148.929 12.169 Q 147.649 12.209 147.089 12.209 A 24.288 24.288 0 0 0 144.296 12.312 A 0.986 0.986 0 0 0 143.929 12.409 Q 143.729 12.569 143.609 16.529 Q 143.489 20.449 143.849 20.649 Q 144.009 20.729 144.289 20.729 Q 144.609 20.729 145.049 20.669 Q 145.489 20.609 146.089 20.529 Q 146.769 20.409 147.889 20.189 Q 149.009 19.969 150.169 19.669 Q 151.329 19.369 152.369 19.049 Q 153.409 18.729 153.889 18.489 Q 154.489 18.289 154.489 18.109 Q 154.489 17.929 153.969 17.369 Q 153.609 16.929 153.209 16.509 Q 152.809 16.089 152.369 15.609 Q 151.609 14.769 151.689 14.769 Q 151.769 14.769 152.029 14.869 Q 152.289 14.969 152.609 15.109 Q 152.929 15.249 153.209 15.369 Q 153.489 15.489 153.569 15.529 Q 153.929 15.689 154.369 16.069 Q 154.809 16.449 155.189 16.909 Q 155.569 17.369 155.829 17.849 Q 156.089 18.329 156.089 18.769 Q 156.089 19.609 155.569 20.089 Q 155.289 20.329 154.969 20.529 Q 154.649 20.729 154.129 20.949 Q 153.609 21.169 152.789 21.389 Q 151.969 21.609 150.729 21.889 Q 149.489 22.169 148.689 22.349 Q 147.889 22.529 147.489 22.649 Q 146.729 22.889 144.929 22.889 Q 144.129 22.889 143.649 22.829 Q 143.169 22.769 142.849 22.529 Q 142.529 22.289 142.329 21.849 Q 142.129 21.409 141.889 20.649 Q 141.729 20.169 141.729 19.269 Q 141.729 18.369 141.809 17.009 Q 141.889 15.649 141.929 14.749 Q 141.969 13.849 142.009 13.329 Q 142.009 12.609 141.889 12.449 Q 141.769 12.289 141.049 12.209 Q 140.529 12.169 140.209 12.129 Q 139.889 12.089 139.809 11.969 Q 139.729 11.849 139.969 11.729 Q 140.049 11.689 140.189 11.649 Q 140.329 11.609 140.529 11.569 Q 141.009 11.489 141.349 11.409 Q 141.689 11.329 141.889 11.209 Q 142.289 10.969 142.689 8.769 Q 143.289 5.569 143.929 4.229 Q 144.569 2.889 145.369 2.609 Q 145.849 2.409 145.849 2.209 Q 145.849 2.089 145.709 2.029 Q 145.569 1.969 145.189 1.869 Q 144.809 1.769 144.089 1.649 Q 143.369 1.529 142.209 1.369 A 11.827 11.827 0 0 1 139.88 0.937 A 0.477 0.477 0 0 1 139.729 0.849 Q 139.609 0.689 139.769 0.529 Z M 1.009 20.769 L 0.929 20.769 Q 0.609 20.769 0.249 20.209 A 1.425 1.425 0 0 1 0 19.434 A 1.249 1.249 0 0 1 0.049 19.089 Q 0.129 18.769 0.189 17.949 Q 0.249 17.129 0.329 15.769 Q 0.409 14.409 0.509 13.129 Q 0.609 11.849 0.689 10.569 Q 0.769 9.289 0.849 7.889 Q 0.929 6.489 0.929 4.889 Q 0.929 1.689 1.129 1.489 Q 1.169 1.449 1.249 1.449 Q 1.369 1.449 1.609 1.769 Q 1.809 1.969 1.849 3.009 Q 1.889 4.049 1.929 5.889 Q 1.969 7.729 2.009 8.649 Q 2.049 9.569 2.129 9.689 Q 2.209 9.769 2.329 9.769 Q 2.529 9.769 3.049 9.569 Q 3.569 9.369 4.589 9.209 Q 5.609 9.049 6.749 8.929 Q 7.889 8.809 8.949 8.729 Q 10.009 8.649 10.609 8.609 A 4.515 4.515 0 0 0 12.403 8.336 A 0.16 0.16 0 0 0 12.409 8.329 A 0.715 0.715 0 0 0 12.512 7.859 A 3.125 3.125 0 0 0 12.509 7.729 Q 12.489 7.249 12.409 6.489 Q 12.329 5.729 12.229 4.749 Q 12.129 3.769 12.129 2.689 Q 12.089 1.849 12.069 1.409 Q 12.049 0.969 12.109 0.749 Q 12.169 0.529 12.309 0.489 Q 12.449 0.449 12.729 0.449 Q 13.169 0.449 13.329 0.649 Q 13.489 0.849 13.609 1.409 Q 13.809 2.129 13.929 2.709 Q 14.049 3.289 14.149 3.969 Q 14.249 4.649 14.369 5.569 Q 14.489 6.489 14.649 7.929 Q 14.889 9.769 15.009 11.809 Q 15.089 12.809 15.149 13.649 Q 15.209 14.489 15.289 15.169 Q 15.369 15.849 15.429 16.909 Q 15.489 17.969 15.569 19.369 Q 15.569 20.329 15.589 20.889 Q 15.609 21.449 15.589 21.789 Q 15.569 22.129 15.469 22.289 Q 15.369 22.449 15.129 22.649 Q 14.649 23.169 14.049 23.169 Q 13.729 23.169 13.529 23.029 Q 13.329 22.889 13.169 22.489 Q 13.009 22.089 12.909 21.389 Q 12.809 20.689 12.689 19.569 Q 12.569 18.449 12.549 17.789 Q 12.529 17.129 12.729 16.929 Q 13.049 16.569 12.969 14.169 Q 12.929 13.009 12.889 12.229 Q 12.849 11.449 12.769 11.129 Q 12.649 10.649 12.249 10.609 Q 12.169 10.609 11.909 10.589 Q 11.649 10.569 11.289 10.569 Q 10.649 10.569 9.289 10.589 Q 7.929 10.609 6.509 10.689 Q 5.089 10.769 3.929 10.869 Q 2.769 10.969 2.449 11.169 Q 1.969 11.449 1.969 13.009 Q 1.969 13.249 1.929 13.929 Q 1.889 14.609 1.829 15.449 Q 1.769 16.289 1.689 17.209 Q 1.609 18.129 1.509 18.909 Q 1.409 19.689 1.269 20.209 Q 1.129 20.729 1.009 20.769 Z M 121.009 0.489 Q 121.489 0.969 122.109 2.089 Q 122.729 3.209 123.329 4.509 Q 123.929 5.809 124.409 7.029 Q 124.889 8.249 125.129 8.929 Q 125.529 10.129 125.809 10.909 Q 126.089 11.689 126.289 12.089 Q 126.609 12.849 126.609 13.469 Q 126.609 14.089 126.849 14.289 Q 127.049 14.449 127.249 15.289 Q 127.449 16.169 127.969 17.889 A 4.193 4.193 0 0 0 128.658 19.549 Q 128.718 19.591 128.769 19.569 Q 129.049 19.449 129.209 18.489 Q 129.409 17.489 129.609 17.009 Q 129.729 16.769 129.929 16.169 Q 130.129 15.569 130.369 14.649 Q 130.769 13.169 131.149 11.969 Q 131.529 10.769 131.849 9.809 A 2.833 2.833 0 0 0 132.013 9.082 A 0.117 0.117 0 0 0 131.929 8.929 A 0.02 0.02 0 0 1 131.906 8.906 A 0.703 0.703 0 0 1 132.049 8.649 Q 132.289 8.369 132.449 7.129 Q 132.569 6.329 132.789 5.589 Q 133.009 4.849 133.329 4.089 Q 133.409 3.849 133.549 3.369 Q 133.689 2.889 133.849 2.209 Q 134.169 0.769 134.409 0.529 Q 134.729 0.209 135.249 0.209 Q 135.729 0.209 136.069 0.609 A 0.792 0.792 0 0 1 136.234 1.139 A 2.659 2.659 0 0 1 136.049 2.009 Q 135.649 3.089 135.349 4.209 Q 135.049 5.329 134.569 6.849 Q 134.329 7.609 134.049 8.609 Q 133.769 9.609 133.449 10.849 Q 133.129 12.089 132.929 12.929 Q 132.729 13.769 132.569 14.209 Q 132.329 14.889 132.189 15.549 Q 132.049 16.209 131.969 16.849 Q 131.849 17.249 131.749 17.449 Q 131.649 17.649 131.549 17.809 Q 131.449 17.969 131.389 18.129 Q 131.329 18.289 131.329 18.649 Q 131.329 19.369 131.169 19.529 Q 131.009 19.689 130.569 20.969 Q 130.129 22.289 129.709 22.729 Q 129.289 23.169 128.609 23.169 Q 127.849 23.169 127.509 22.649 Q 127.169 22.129 126.929 21.529 Q 126.769 21.129 126.509 20.209 Q 126.249 19.289 125.889 17.769 Q 125.529 16.249 125.129 14.669 Q 124.729 13.089 124.289 11.569 Q 123.849 10.049 123.389 8.609 Q 122.929 7.169 122.449 5.969 Q 122.009 4.809 121.589 3.789 Q 121.169 2.769 120.809 1.889 Q 120.369 0.849 120.269 0.429 A 1.184 1.184 0 0 1 120.231 0.168 A 0.122 0.122 0 0 1 120.329 0.009 Q 120.529 0.009 121.009 0.489 Z M 160.049 12.569 Q 160.249 12.449 160.349 12.269 Q 160.449 12.089 160.509 11.729 Q 160.569 11.369 160.589 10.809 Q 160.609 10.249 160.609 9.329 Q 160.609 7.929 160.649 6.649 Q 160.689 5.369 160.769 4.129 A 23.453 23.453 0 0 0 160.86 2.346 A 1.607 1.607 0 0 0 160.729 1.449 A 0.235 0.235 0 0 1 160.646 1.29 A 0.257 0.257 0 0 1 160.809 1.089 Q 160.929 1.009 160.969 0.829 L 161.049 0.469 Q 161.089 0.289 161.169 0.149 Q 161.249 0.009 161.449 0.009 Q 161.849 0.009 161.849 0.329 Q 161.849 0.689 164.049 0.689 Q 164.689 0.689 165.589 0.769 Q 166.489 0.849 167.489 1.029 Q 168.489 1.209 169.469 1.509 Q 170.449 1.809 171.229 2.289 Q 172.009 2.769 172.509 3.449 Q 173.009 4.129 173.009 5.009 Q 173.009 6.049 172.449 6.929 Q 172.169 7.409 171.729 7.869 Q 171.289 8.329 170.869 8.669 Q 170.449 9.009 170.129 9.229 Q 169.809 9.449 169.729 9.449 A 6.496 6.496 0 0 0 168.41 10.188 A 52.243 52.243 0 0 0 168.249 10.289 Q 167.569 10.729 166.669 11.169 Q 165.769 11.609 164.609 12.169 A 12.569 12.569 0 0 0 162.476 13.336 A 0.332 0.332 0 0 0 162.329 13.529 Q 162.329 13.769 163.489 14.249 Q 164.049 14.489 164.969 14.849 Q 165.889 15.209 167.169 15.729 Q 168.409 16.249 169.149 16.569 Q 169.889 16.889 170.129 17.089 Q 170.609 17.449 171.009 17.449 Q 171.249 17.449 171.829 17.829 Q 172.409 18.209 173.069 18.729 Q 173.729 19.249 174.309 19.749 Q 174.889 20.249 175.089 20.449 Q 175.489 20.849 175.589 21.069 A 0.41 0.41 0 0 1 175.623 21.24 A 1.241 1.241 0 0 1 175.489 21.729 Q 175.249 22.609 174.689 22.609 Q 174.049 22.609 172.289 21.209 Q 171.409 20.529 170.709 20.009 Q 170.009 19.489 169.329 19.029 Q 168.649 18.569 167.869 18.149 Q 167.089 17.729 166.049 17.209 Q 164.769 16.569 163.969 16.229 Q 163.169 15.889 162.849 15.809 Q 162.729 15.769 162.569 15.769 Q 162.369 15.769 162.349 16.089 Q 162.329 16.409 162.329 17.369 Q 162.329 19.049 162.569 20.569 Q 162.689 21.369 162.729 21.869 A 3.892 3.892 0 0 1 162.743 22.178 A 1.748 1.748 0 0 1 162.689 22.649 Q 162.609 22.929 162.309 23.049 Q 162.009 23.169 161.649 23.169 Q 161.329 23.169 161.069 23.089 Q 160.809 23.009 160.689 22.849 Q 160.489 22.609 160.369 18.649 Q 160.249 14.809 159.929 14.369 Q 159.569 14.009 159.569 13.489 Q 159.569 12.969 160.049 12.569 Z M 161.969 4.489 Q 162.009 5.929 162.029 7.189 Q 162.049 8.449 162.069 9.389 Q 162.089 10.329 162.149 10.889 Q 162.209 11.449 162.329 11.449 Q 162.609 11.449 165.009 10.129 Q 167.409 8.809 168.929 7.609 Q 170.449 6.409 170.889 5.729 Q 171.209 5.129 171.209 4.949 Q 171.209 4.769 170.929 4.289 Q 170.449 3.609 169.469 3.069 Q 168.489 2.529 167.329 2.169 Q 166.169 1.809 165.029 1.609 Q 163.889 1.409 163.089 1.409 Q 162.489 1.409 162.249 1.529 Q 162.129 1.609 162.049 1.749 Q 161.969 1.889 161.929 2.189 A 3.954 3.954 0 0 0 161.903 2.696 A 9.049 9.049 0 0 0 161.909 3.029 Q 161.929 3.569 161.969 4.489 Z M 19.809 17.049 Q 20.409 14.329 20.869 12.889 Q 21.329 11.449 21.729 10.609 Q 21.929 10.209 22.269 9.449 Q 22.609 8.689 23.049 7.569 Q 23.969 5.329 24.689 4.089 Q 25.409 2.849 26.129 1.969 Q 26.489 1.529 26.589 1.169 Q 26.689 0.809 26.689 0.549 L 26.689 0.149 Q 26.689 0.009 26.809 0.009 Q 27.089 0.009 27.249 0.249 Q 27.369 0.369 27.609 0.369 Q 27.809 0.369 27.989 0.349 Q 28.169 0.329 28.329 0.329 Q 28.569 0.329 28.569 0.449 Q 28.569 0.689 28.349 0.689 Q 28.129 0.689 28.129 0.929 Q 28.129 1.169 29.209 3.409 Q 29.729 4.489 30.209 5.609 Q 30.689 6.729 31.069 7.709 Q 31.449 8.689 31.709 9.449 Q 31.969 10.209 32.089 10.609 Q 32.209 10.889 32.269 11.049 Q 32.329 11.209 32.509 11.309 Q 32.689 11.409 33.049 11.449 Q 33.409 11.489 34.049 11.529 Q 35.209 11.569 35.449 11.649 Q 35.689 11.729 35.769 12.209 A 2.007 2.007 0 0 1 35.784 12.443 A 0.862 0.862 0 0 1 35.489 13.169 Q 35.289 13.329 34.909 13.429 Q 34.529 13.529 34.169 13.569 Q 33.809 13.609 33.529 13.649 Q 33.249 13.689 33.209 13.729 Q 33.169 13.769 33.769 16.129 Q 34.089 17.289 34.269 18.129 Q 34.449 18.969 34.529 19.449 A 3.541 3.541 0 0 1 34.555 19.871 A 3.113 3.113 0 0 1 34.209 21.309 Q 33.769 22.169 33.329 22.409 Q 33.089 22.529 32.849 22.529 Q 32.169 22.529 30.729 21.329 Q 30.209 20.889 29.369 20.209 Q 28.529 19.529 27.369 18.609 Q 27.209 18.449 26.489 17.889 Q 25.769 17.329 24.929 16.729 Q 24.089 16.129 23.349 15.649 Q 22.609 15.169 22.409 15.169 Q 22.209 15.169 22.169 15.349 Q 22.129 15.529 22.049 15.849 Q 22.009 16.209 21.889 16.589 Q 21.769 16.969 21.649 17.509 Q 21.529 18.049 21.449 18.769 Q 21.369 19.489 21.369 20.529 Q 21.369 22.569 21.089 22.849 Q 20.769 23.169 19.969 23.169 Q 19.129 23.169 18.969 22.889 A 0.915 0.915 0 0 1 18.898 22.443 A 9.374 9.374 0 0 1 19.009 21.229 A 60.712 60.712 0 0 1 19.772 17.221 A 146.468 146.468 0 0 1 19.809 17.049 Z M 26.569 11.849 Q 26.769 11.689 28.569 11.649 Q 29.889 11.649 30.129 11.509 A 0.416 0.416 0 0 0 30.289 11.118 A 1.811 1.811 0 0 0 30.249 10.769 Q 30.129 9.889 28.849 5.889 A 45.701 45.701 0 0 0 27.758 2.752 A 1.453 1.453 0 0 0 27.329 2.009 Q 27.129 2.009 26.329 3.529 Q 26.089 4.009 25.589 5.129 Q 25.089 6.249 24.589 7.509 Q 24.089 8.769 23.689 9.869 Q 23.289 10.969 23.209 11.449 A 2.002 2.002 0 0 0 23.164 11.828 A 0.527 0.527 0 0 0 23.189 12.009 Q 23.249 12.169 23.689 12.169 Q 23.889 12.169 24.329 12.129 Q 24.769 12.089 25.249 12.049 Q 25.729 12.009 26.129 11.949 Q 26.529 11.889 26.569 11.849 Z M 26.929 13.729 L 25.569 13.729 A 24.089 24.089 0 0 0 22.928 13.82 A 0.393 0.393 0 0 0 22.609 13.929 Q 22.609 14.209 22.809 14.209 Q 23.129 14.209 30.329 18.889 Q 31.209 19.449 31.609 19.689 Q 32.009 19.929 32.169 19.929 Q 32.289 19.929 32.289 19.829 L 32.289 19.529 Q 32.289 19.169 31.809 17.009 Q 31.569 15.929 31.429 15.269 Q 31.289 14.609 31.209 14.329 Q 31.209 13.889 30.609 13.849 Q 29.929 13.769 26.929 13.729 Z M 217.009 17.049 Q 217.609 14.329 218.069 12.889 Q 218.529 11.449 218.929 10.609 Q 219.129 10.209 219.469 9.449 Q 219.809 8.689 220.249 7.569 Q 221.169 5.329 221.889 4.089 Q 222.609 2.849 223.329 1.969 Q 223.689 1.529 223.789 1.169 Q 223.889 0.809 223.889 0.549 L 223.889 0.149 Q 223.889 0.009 224.009 0.009 Q 224.289 0.009 224.449 0.249 Q 224.569 0.369 224.809 0.369 Q 225.009 0.369 225.189 0.349 Q 225.369 0.329 225.529 0.329 Q 225.769 0.329 225.769 0.449 Q 225.769 0.689 225.549 0.689 Q 225.329 0.689 225.329 0.929 Q 225.329 1.169 226.409 3.409 Q 226.929 4.489 227.409 5.609 Q 227.889 6.729 228.269 7.709 Q 228.649 8.689 228.909 9.449 Q 229.169 10.209 229.289 10.609 Q 229.409 10.889 229.469 11.049 Q 229.529 11.209 229.709 11.309 Q 229.889 11.409 230.249 11.449 Q 230.609 11.489 231.249 11.529 Q 232.409 11.569 232.649 11.649 Q 232.889 11.729 232.969 12.209 A 2.007 2.007 0 0 1 232.984 12.443 A 0.862 0.862 0 0 1 232.689 13.169 Q 232.489 13.329 232.109 13.429 Q 231.729 13.529 231.369 13.569 Q 231.009 13.609 230.729 13.649 Q 230.449 13.689 230.409 13.729 Q 230.369 13.769 230.969 16.129 Q 231.289 17.289 231.469 18.129 Q 231.649 18.969 231.729 19.449 A 3.541 3.541 0 0 1 231.755 19.871 A 3.113 3.113 0 0 1 231.409 21.309 Q 230.969 22.169 230.529 22.409 Q 230.289 22.529 230.049 22.529 Q 229.369 22.529 227.929 21.329 Q 227.409 20.889 226.569 20.209 Q 225.729 19.529 224.569 18.609 Q 224.409 18.449 223.689 17.889 Q 222.969 17.329 222.129 16.729 Q 221.289 16.129 220.549 15.649 Q 219.809 15.169 219.609 15.169 Q 219.409 15.169 219.369 15.349 Q 219.329 15.529 219.249 15.849 Q 219.209 16.209 219.089 16.589 Q 218.969 16.969 218.849 17.509 Q 218.729 18.049 218.649 18.769 Q 218.569 19.489 218.569 20.529 Q 218.569 22.569 218.289 22.849 Q 217.969 23.169 217.169 23.169 Q 216.329 23.169 216.169 22.889 A 0.915 0.915 0 0 1 216.098 22.443 A 9.374 9.374 0 0 1 216.209 21.229 A 60.712 60.712 0 0 1 216.972 17.221 A 146.468 146.468 0 0 1 217.009 17.049 Z M 223.769 11.849 Q 223.969 11.689 225.769 11.649 Q 227.089 11.649 227.329 11.509 A 0.416 0.416 0 0 0 227.489 11.118 A 1.811 1.811 0 0 0 227.449 10.769 Q 227.329 9.889 226.049 5.889 A 45.701 45.701 0 0 0 224.958 2.752 A 1.453 1.453 0 0 0 224.529 2.009 Q 224.329 2.009 223.529 3.529 Q 223.289 4.009 222.789 5.129 Q 222.289 6.249 221.789 7.509 Q 221.289 8.769 220.889 9.869 Q 220.489 10.969 220.409 11.449 A 2.002 2.002 0 0 0 220.364 11.828 A 0.527 0.527 0 0 0 220.389 12.009 Q 220.449 12.169 220.889 12.169 Q 221.089 12.169 221.529 12.129 Q 221.969 12.089 222.449 12.049 Q 222.929 12.009 223.329 11.949 Q 223.729 11.889 223.769 11.849 Z M 224.129 13.729 L 222.769 13.729 A 24.089 24.089 0 0 0 220.128 13.82 A 0.393 0.393 0 0 0 219.809 13.929 Q 219.809 14.209 220.009 14.209 Q 220.329 14.209 227.529 18.889 Q 228.409 19.449 228.809 19.689 Q 229.209 19.929 229.369 19.929 Q 229.489 19.929 229.489 19.829 L 229.489 19.529 Q 229.489 19.169 229.009 17.009 Q 228.769 15.929 228.629 15.269 Q 228.489 14.609 228.409 14.329 Q 228.409 13.889 227.809 13.849 Q 227.129 13.769 224.129 13.729 Z M 73.289 1.049 Q 73.289 0.929 73.369 0.929 Q 73.569 0.929 74.029 1.409 Q 74.489 1.889 75.089 2.629 Q 75.689 3.369 76.369 4.269 Q 77.049 5.169 77.669 6.009 Q 78.289 6.849 78.749 7.549 Q 79.209 8.249 79.409 8.569 Q 79.569 8.849 79.769 8.849 Q 79.889 8.849 80.049 8.769 Q 80.289 8.649 81.269 7.649 Q 82.249 6.649 83.429 5.369 Q 84.609 4.089 85.709 2.869 Q 86.809 1.649 87.249 1.049 Q 87.689 0.489 88.049 0.249 Q 88.409 0.009 88.609 0.009 Q 89.009 0.009 89.009 0.569 Q 89.009 1.169 87.989 2.629 Q 86.969 4.089 85.089 6.129 Q 84.169 7.129 83.369 7.949 Q 82.569 8.769 81.989 9.369 Q 81.409 9.969 81.109 10.289 A 0.745 0.745 0 0 0 80.872 10.645 A 0.06 0.06 0 0 0 80.889 10.689 Q 81.089 11.089 81.409 18.009 A 66.087 66.087 0 0 1 81.424 19.337 Q 81.424 21.217 81.285 22.021 A 1.486 1.486 0 0 1 81.129 22.529 Q 80.729 23.169 80.089 23.169 Q 79.569 23.169 79.409 22.809 Q 79.329 22.649 79.309 21.229 Q 79.289 19.809 79.209 17.129 Q 79.089 11.809 78.809 11.289 Q 78.649 11.009 78.369 10.409 Q 78.089 9.809 77.569 8.809 Q 77.049 7.809 76.729 7.169 L 76.249 6.209 Q 75.809 5.449 75.229 4.509 Q 74.649 3.569 73.849 2.449 Q 73.289 1.529 73.289 1.049 Z M 178.889 1.049 Q 178.889 0.929 178.969 0.929 Q 179.169 0.929 179.629 1.409 Q 180.089 1.889 180.689 2.629 Q 181.289 3.369 181.969 4.269 Q 182.649 5.169 183.269 6.009 Q 183.889 6.849 184.349 7.549 Q 184.809 8.249 185.009 8.569 Q 185.169 8.849 185.369 8.849 Q 185.489 8.849 185.649 8.769 Q 185.889 8.649 186.869 7.649 Q 187.849 6.649 189.029 5.369 Q 190.209 4.089 191.309 2.869 Q 192.409 1.649 192.849 1.049 Q 193.289 0.489 193.649 0.249 Q 194.009 0.009 194.209 0.009 Q 194.609 0.009 194.609 0.569 Q 194.609 1.169 193.589 2.629 Q 192.569 4.089 190.689 6.129 Q 189.769 7.129 188.969 7.949 Q 188.169 8.769 187.589 9.369 Q 187.009 9.969 186.709 10.289 A 0.745 0.745 0 0 0 186.472 10.645 A 0.06 0.06 0 0 0 186.489 10.689 Q 186.689 11.089 187.009 18.009 A 66.087 66.087 0 0 1 187.024 19.337 Q 187.024 21.217 186.885 22.021 A 1.486 1.486 0 0 1 186.729 22.529 Q 186.329 23.169 185.689 23.169 Q 185.169 23.169 185.009 22.809 Q 184.929 22.649 184.909 21.229 Q 184.889 19.809 184.809 17.129 Q 184.689 11.809 184.409 11.289 Q 184.249 11.009 183.969 10.409 Q 183.689 9.809 183.169 8.809 Q 182.649 7.809 182.329 7.169 L 181.849 6.209 Q 181.409 5.449 180.829 4.509 Q 180.249 3.569 179.449 2.449 Q 178.889 1.529 178.889 1.049 Z M 236.249 1.049 Q 236.249 0.929 236.329 0.929 Q 236.529 0.929 236.989 1.409 Q 237.449 1.889 238.049 2.629 Q 238.649 3.369 239.329 4.269 Q 240.009 5.169 240.629 6.009 Q 241.249 6.849 241.709 7.549 Q 242.169 8.249 242.369 8.569 Q 242.529 8.849 242.729 8.849 Q 242.849 8.849 243.009 8.769 Q 243.249 8.649 244.229 7.649 Q 245.209 6.649 246.389 5.369 Q 247.569 4.089 248.669 2.869 Q 249.769 1.649 250.209 1.049 Q 250.649 0.489 251.009 0.249 Q 251.369 0.009 251.569 0.009 Q 251.969 0.009 251.969 0.569 Q 251.969 1.169 250.949 2.629 Q 249.929 4.089 248.049 6.129 Q 247.129 7.129 246.329 7.949 Q 245.529 8.769 244.949 9.369 Q 244.369 9.969 244.069 10.289 A 0.745 0.745 0 0 0 243.832 10.645 A 0.06 0.06 0 0 0 243.849 10.689 Q 244.049 11.089 244.369 18.009 A 66.087 66.087 0 0 1 244.384 19.337 Q 244.384 21.217 244.245 22.021 A 1.486 1.486 0 0 1 244.089 22.529 Q 243.689 23.169 243.049 23.169 Q 242.529 23.169 242.369 22.809 Q 242.289 22.649 242.269 21.229 Q 242.249 19.809 242.169 17.129 Q 242.049 11.809 241.769 11.289 Q 241.609 11.009 241.329 10.409 Q 241.049 9.809 240.529 8.809 Q 240.009 7.809 239.689 7.169 L 239.209 6.209 Q 238.769 5.449 238.189 4.509 Q 237.609 3.569 236.809 2.449 Q 236.249 1.529 236.249 1.049 Z M 41.569 22.009 Q 41.489 22.889 41.389 23.029 Q 41.289 23.169 40.529 23.169 A 1.807 1.807 0 0 1 39.429 22.989 Q 39.289 22.809 39.289 22.169 A 41.997 41.997 0 0 1 39.464 19.276 A 138.862 138.862 0 0 1 39.469 19.209 Q 39.649 17.049 39.649 14.429 A 22.899 22.899 0 0 1 39.738 11.856 A 0.717 0.717 0 0 1 39.809 11.589 Q 39.969 11.369 39.969 9.969 Q 39.969 9.009 39.869 6.309 A 47.613 47.613 0 0 0 39.634 2.657 A 11.171 11.171 0 0 0 39.609 2.469 Q 39.449 1.329 39.249 1.209 Q 39.049 1.089 39.049 0.969 Q 39.049 0.849 39.289 0.689 Q 39.529 0.529 40.849 0.529 Q 41.489 0.529 43.249 0.609 Q 45.009 0.689 46.829 1.109 Q 48.649 1.529 50.229 2.309 Q 51.809 3.089 52.389 4.029 Q 52.969 4.969 52.969 6.189 Q 52.969 7.409 52.069 8.609 Q 51.169 9.809 49.229 11.289 Q 47.289 12.769 45.369 13.769 A 13.665 13.665 0 0 1 42.738 14.918 A 2.237 2.237 0 0 1 42.689 14.929 Q 42.249 15.009 42.069 15.189 Q 41.889 15.369 41.849 15.809 Q 41.729 17.249 41.569 22.009 Z M 41.649 8.249 Q 41.769 11.049 41.769 12.109 Q 41.769 13.169 41.929 13.169 A 8.821 8.821 0 0 0 43.389 12.536 A 70.989 70.989 0 0 0 43.569 12.449 Q 45.049 11.729 46.449 10.809 Q 47.849 9.889 49.189 8.609 Q 50.529 7.329 50.869 6.649 Q 51.209 5.969 51.209 5.509 Q 51.209 5.049 50.549 4.389 Q 49.889 3.729 48.209 3.109 Q 46.529 2.489 43.989 2.009 A 44.722 44.722 0 0 0 41.278 1.552 A 2.993 2.993 0 0 0 40.969 1.529 Q 40.849 1.529 40.829 1.569 Q 40.809 1.609 40.809 1.689 Q 40.809 1.889 40.949 2.309 Q 41.089 2.729 41.089 2.929 Q 41.089 2.969 41.069 3.009 Q 41.049 3.049 41.049 3.129 A 7.932 7.932 0 0 0 41.269 4.449 A 20.239 20.239 0 0 1 41.565 6.962 A 75.222 75.222 0 0 1 41.649 8.249 Z M 58.689 22.009 Q 58.609 22.889 58.509 23.029 Q 58.409 23.169 57.649 23.169 A 1.807 1.807 0 0 1 56.549 22.989 Q 56.409 22.809 56.409 22.169 A 41.997 41.997 0 0 1 56.584 19.276 A 138.862 138.862 0 0 1 56.589 19.209 Q 56.769 17.049 56.769 14.429 A 22.899 22.899 0 0 1 56.858 11.856 A 0.717 0.717 0 0 1 56.929 11.589 Q 57.089 11.369 57.089 9.969 Q 57.089 9.009 56.989 6.309 A 47.613 47.613 0 0 0 56.754 2.657 A 11.171 11.171 0 0 0 56.729 2.469 Q 56.569 1.329 56.369 1.209 Q 56.169 1.089 56.169 0.969 Q 56.169 0.849 56.409 0.689 Q 56.649 0.529 57.969 0.529 Q 58.609 0.529 60.369 0.609 Q 62.129 0.689 63.949 1.109 Q 65.769 1.529 67.349 2.309 Q 68.929 3.089 69.509 4.029 Q 70.089 4.969 70.089 6.189 Q 70.089 7.409 69.189 8.609 Q 68.289 9.809 66.349 11.289 Q 64.409 12.769 62.489 13.769 A 13.665 13.665 0 0 1 59.858 14.918 A 2.237 2.237 0 0 1 59.809 14.929 Q 59.369 15.009 59.189 15.189 Q 59.009 15.369 58.969 15.809 Q 58.849 17.249 58.689 22.009 Z M 58.769 8.249 Q 58.889 11.049 58.889 12.109 Q 58.889 13.169 59.049 13.169 A 8.821 8.821 0 0 0 60.509 12.536 A 70.989 70.989 0 0 0 60.689 12.449 Q 62.169 11.729 63.569 10.809 Q 64.969 9.889 66.309 8.609 Q 67.649 7.329 67.989 6.649 Q 68.329 5.969 68.329 5.509 Q 68.329 5.049 67.669 4.389 Q 67.009 3.729 65.329 3.109 Q 63.649 2.489 61.109 2.009 A 44.722 44.722 0 0 0 58.398 1.552 A 2.993 2.993 0 0 0 58.089 1.529 Q 57.969 1.529 57.949 1.569 Q 57.929 1.609 57.929 1.689 Q 57.929 1.889 58.069 2.309 Q 58.209 2.729 58.209 2.929 Q 58.209 2.969 58.189 3.009 Q 58.169 3.049 58.169 3.129 A 7.932 7.932 0 0 0 58.389 4.449 A 20.239 20.239 0 0 1 58.685 6.962 A 75.222 75.222 0 0 1 58.769 8.249 Z M 205.489 18.729 Q 203.729 20.129 202.149 21.629 A 8.224 8.224 0 0 1 200.323 23.093 A 0.43 0.43 0 0 1 200.169 23.129 L 199.969 23.109 Q 199.769 23.089 199.069 22.889 Q 198.369 22.689 198.089 22.469 Q 197.809 22.249 197.809 22.049 Q 197.809 21.849 198.009 21.509 Q 198.209 21.169 198.749 20.949 Q 199.289 20.729 199.289 20.449 Q 199.289 20.329 199.149 20.069 Q 199.009 19.809 198.989 15.829 Q 198.969 11.849 198.969 11.169 Q 198.969 5.169 199.089 4.189 Q 199.209 3.209 199.209 2.809 Q 199.209 1.969 198.969 1.689 Q 198.769 1.449 198.769 1.249 L 198.789 1.149 Q 198.809 1.049 199.249 0.649 Q 199.769 0.169 199.829 0.129 Q 199.889 0.089 199.929 0.089 Q 200.049 0.089 200.209 0.369 A 2.054 2.054 0 0 0 201.72 0.902 A 13.713 13.713 0 0 0 202.709 0.969 A 15.811 15.811 0 0 1 205.402 1.213 A 1.753 1.753 0 0 1 205.529 1.249 Q 206.129 1.449 206.969 1.449 Q 207.809 1.449 207.969 1.689 Q 208.129 1.929 208.929 2.109 Q 209.729 2.289 210.789 3.009 Q 211.849 3.729 212.329 4.729 Q 212.809 5.729 212.809 7.349 Q 212.809 8.969 212.189 10.389 Q 211.569 11.809 211.329 12.189 Q 211.089 12.569 210.669 13.329 Q 210.249 14.089 208.749 15.709 Q 207.249 17.329 205.489 18.729 Z M 201.169 19.089 Q 201.289 19.209 201.449 19.209 Q 201.729 19.209 202.269 18.829 Q 202.809 18.449 205.229 15.949 Q 207.649 13.449 208.989 11.629 Q 210.329 9.809 210.689 8.369 Q 210.969 7.329 210.969 6.969 Q 210.969 6.609 210.609 5.969 Q 210.089 5.049 209.289 4.389 Q 208.489 3.729 207.249 3.189 Q 206.009 2.649 203.889 2.189 A 21.977 21.977 0 0 0 201.35 1.734 A 1.889 1.889 0 0 0 201.229 1.729 Q 200.689 1.729 200.409 2.049 Q 200.129 2.369 200.129 5.729 A 122.382 122.382 0 0 0 200.33 13.346 A 55.583 55.583 0 0 0 200.489 15.329 A 33.614 33.614 0 0 0 200.973 18.508 A 1.976 1.976 0 0 0 201.169 19.089 Z"/></g></svg>