<svg width="68.398" height="58.876" viewBox="0 0 68.398 58.876" xmlns="http://www.w3.org/2000/svg"><g id="svgGroup" stroke-linecap="round" fill-rule="nonzero" font-size="9pt" stroke="#000000" stroke-width="0.5" fill="#f500d4" style="stroke:#000000;stroke-width:0.5;fill:#f500d4"><path d="M 1.85 29.358 A 66.594 66.594 0 0 1 3.9 27.076 Q 4.65 26.101 4.65 25.801 Q 4.65 25.651 4.988 25.313 Q 5.325 24.976 5.963 24.226 Q 6.6 23.476 7.5 22.201 Q 8.4 20.926 9.525 18.901 Q 10.575 16.951 11.363 15.263 Q 12.15 13.576 12.675 12.301 Q 13.725 9.676 13.838 7.463 A 6.552 6.552 0 0 0 13.846 7.131 A 3.092 3.092 0 0 0 12.6 4.351 A 2.786 2.786 0 0 1 11.769 3.403 A 0.06 0.06 0 0 1 11.775 3.376 Q 11.85 3.226 12.825 3.001 Q 13.575 2.851 13.725 2.851 Q 14.55 2.851 15.675 4.276 Q 17.175 5.851 17.213 8.326 Q 17.248 10.651 16.125 14.1 A 36.306 36.306 0 0 1 15.975 14.551 Q 15.375 16.426 14.625 18.076 Q 13.875 19.726 13.163 21.076 Q 12.45 22.426 11.85 23.326 Q 11.25 24.226 10.95 24.601 A 1.083 1.083 0 0 0 10.632 25.267 A 0.515 0.515 0 0 0 10.688 25.501 Q 10.875 25.876 12 26.851 Q 13.05 27.751 13.463 28.613 Q 13.875 29.476 14.025 30.226 Q 14.175 30.976 14.288 31.426 Q 14.4 31.876 14.775 31.876 Q 15.225 31.876 16.35 31.051 A 27.844 27.844 0 0 1 20.122 28.594 A 63.229 63.229 0 0 1 20.288 28.501 A 189.413 189.413 0 0 0 25.894 25.187 A 333.887 333.887 0 0 0 26.85 24.601 Q 27.6 24.151 28.95 23.513 Q 30.3 22.876 32.175 21.901 A 27.817 27.817 0 0 0 35.227 20.115 A 3.995 3.995 0 0 0 35.7 19.726 Q 36 19.426 36.488 18.488 Q 36.975 17.551 37.463 16.426 Q 37.95 15.301 38.288 14.326 Q 38.625 13.351 38.625 12.901 Q 38.625 12.526 38.325 11.776 Q 38.025 11.026 37.5 9.976 A 15.764 15.764 0 0 1 36.206 6.529 A 2.934 2.934 0 0 1 36.15 6.001 Q 36.15 4.726 36.825 3.938 Q 37.5 3.151 38.513 2.701 Q 39.525 2.251 40.688 2.063 Q 41.85 1.876 42.825 1.876 Q 43.65 1.876 44.025 2.138 Q 44.4 2.401 44.85 3.076 Q 45.15 3.526 45.3 3.901 Q 45.45 4.276 45.45 4.726 Q 45.45 5.176 45.3 5.851 Q 45.15 6.526 44.775 7.651 Q 44.4 9.301 44.063 10.463 Q 43.725 11.626 43.575 12.301 A 2.643 2.643 0 0 0 43.561 12.564 A 1.519 1.519 0 0 0 43.838 13.501 Q 44.175 13.951 45.45 14.551 Q 47.325 15.751 49.05 15.751 Q 50.775 15.751 51.638 16.688 Q 52.5 17.626 52.35 18.751 Q 52.275 19.651 51.675 19.838 A 9.284 9.284 0 0 1 49.678 20.014 A 51.177 51.177 0 0 1 48.525 20.026 Q 46.65 20.026 45.338 20.288 Q 44.025 20.551 43.163 20.851 Q 42.3 21.151 41.775 21.376 Q 41.25 21.601 40.875 21.601 Q 40.05 21.601 39.375 22.726 Q 39 23.326 37.5 27.188 Q 36 31.051 33.3 38.251 Q 30.6 45.451 29.138 49.388 Q 27.675 53.326 27.45 54.076 Q 27.225 54.826 26.813 55.688 Q 26.4 56.551 25.988 57.263 Q 25.575 57.976 25.2 58.426 Q 24.825 58.876 24.675 58.876 Q 24.375 58.801 23.738 58.538 Q 23.1 58.276 22.425 57.976 Q 21.75 57.676 21.188 57.338 Q 20.625 57.001 20.4 56.776 Q 20.175 56.476 20.175 55.576 Q 20.175 54.676 20.325 53.438 Q 20.475 52.201 20.663 50.813 Q 20.85 49.426 20.925 48.226 A 16.844 16.844 0 0 1 21.241 45.764 A 0.293 0.293 0 0 1 21.375 45.526 A 2.077 2.077 0 0 1 21.881 46.665 A 27.115 27.115 0 0 1 22.125 47.551 A 13.652 13.652 0 0 0 22.902 49.92 A 0.791 0.791 0 0 0 23.025 50.101 Q 23.315 50.391 26.291 43.247 A 478.81 478.81 0 0 0 28.275 38.401 A 916.335 916.335 0 0 1 30.403 33.057 A 353.318 353.318 0 0 1 31.988 29.176 A 36.633 36.633 0 0 1 33.233 26.41 A 1.559 1.559 0 0 1 33.6 25.876 Q 34.05 25.501 34.05 25.126 Q 34.05 24.751 33.525 24.751 A 6.492 6.492 0 0 0 31.894 25.351 A 94.346 94.346 0 0 0 28.2 27.151 A 138.469 138.469 0 0 0 21.663 30.605 A 66.242 66.242 0 0 0 20.513 31.276 A 39.834 39.834 0 0 0 16.062 34.266 A 17.234 17.234 0 0 0 16.05 34.276 Q 15.6 34.801 15.3 35.176 Q 15 35.551 14.888 35.963 A 2.677 2.677 0 0 0 14.803 36.667 A 4.09 4.09 0 0 0 14.813 36.938 Q 14.85 37.501 15.075 38.476 Q 15.225 39.901 15.338 41.288 Q 15.45 42.676 15.45 44.026 Q 15.45 45.826 15.3 46.388 Q 15.15 46.951 14.025 47.251 Q 13.425 47.401 13.2 47.401 Q 12.15 47.401 11.325 46.726 Q 10.5 46.051 10.35 45.001 Q 10.275 44.476 10.313 42.901 Q 10.35 41.326 10.5 38.701 Q 10.673 33.057 10.536 31.261 A 3.257 3.257 0 0 0 10.425 30.526 Q 10.05 29.701 9.6 29.701 Q 9.15 29.701 6.3 32.401 A 14.999 14.999 0 0 1 3.329 34.803 A 2.079 2.079 0 0 1 2.4 35.101 Q 1.875 35.101 1.388 34.726 Q 0.9 34.351 0.563 33.863 Q 0.225 33.376 0.075 32.813 A 2.075 2.075 0 0 1 0 32.279 A 1.502 1.502 0 0 1 0.075 31.801 A 13.232 13.232 0 0 1 1.85 29.358 Z M 38.7 8.026 A 5.542 5.542 0 0 0 39.81 9.72 A 0.18 0.18 0 0 0 39.9 9.751 A 1.917 1.917 0 0 0 40.744 8.443 A 19.064 19.064 0 0 0 41.1 7.426 A 8.673 8.673 0 0 0 41.632 5.259 Q 41.634 5.212 41.634 5.168 A 0.656 0.656 0 0 0 41.475 4.651 Q 41.25 4.426 40.725 4.426 Q 40.05 4.426 39.225 4.763 Q 38.4 5.101 38.175 5.626 A 1.066 1.066 0 0 0 38.095 6.061 A 5.029 5.029 0 0 0 38.7 8.026 Z M 42.075 17.551 Q 42.675 17.401 42.9 16.838 A 0.589 0.589 0 0 0 42.948 16.623 A 0.495 0.495 0 0 0 42.3 16.276 Q 41.475 16.276 41.475 16.951 Q 41.475 17.626 41.925 17.626 Q 42 17.551 42.075 17.551 Z M 57.975 23.101 L 59.55 25.201 Q 60.375 26.326 61.35 28.276 A 17484.314 17484.314 0 0 0 63.994 32.87 A 4035.283 4035.283 0 0 0 65.625 35.701 Q 66.75 37.651 67.65 40.576 Q 68.925 44.401 68.025 47.176 Q 67.875 47.626 67.5 48.001 Q 67.125 48.376 66.263 48.713 Q 65.4 49.051 63.975 49.388 Q 62.55 49.726 60.3 49.951 Q 55.725 50.476 52.2 51.001 Q 48.675 51.526 44.925 51.526 Q 43.65 51.526 42.9 51.488 Q 42.15 51.451 41.625 51.338 Q 41.1 51.226 40.763 50.888 Q 40.425 50.551 39.975 50.026 Q 39.3 49.426 38.925 48.901 Q 38.55 48.376 38.4 48.001 A 1.85 1.85 0 0 1 38.314 47.352 Q 38.314 46.265 38.85 43.801 Q 39.225 42.076 39.6 39.413 Q 39.975 36.751 40.5 33.076 A 143.346 143.346 0 0 0 41.113 28.323 Q 41.43 25.381 41.254 24.765 A 0.698 0.698 0 0 0 41.25 24.751 A 2.085 2.085 0 0 1 41.127 24.104 A 0.891 0.891 0 0 1 41.213 23.701 Q 41.4 23.326 41.625 23.326 Q 42 23.326 42.225 24.076 Q 42.375 24.601 42.525 25.801 Q 42.675 27.001 42.9 28.951 Q 43.125 30.901 43.163 32.963 Q 43.2 35.026 43.05 37.201 Q 42.9 39.451 42.825 41.251 Q 42.75 43.051 42.75 44.326 Q 42.75 45.826 42.9 46.276 Q 43.05 46.726 44.325 46.726 Q 44.55 46.726 44.813 46.688 Q 45.075 46.651 45.45 46.651 Q 48.3 46.651 51.413 46.088 Q 54.525 45.526 57.9 45.301 A 22.22 22.22 0 0 0 62.023 44.737 A 5.388 5.388 0 0 0 62.588 44.551 Q 63.9 44.026 63.9 43.576 Q 63.9 42.376 63.338 40.051 Q 62.775 37.726 61.988 35.138 Q 61.2 32.551 60.375 30.188 Q 59.55 27.826 59.1 26.701 A 34.599 34.599 0 0 1 58.081 23.755 Q 57.949 23.26 57.975 23.101 Z M 50.25 5.626 A 19.626 19.626 0 0 0 52.789 4.604 A 0.647 0.647 0 0 0 53.1 4.351 A 0.122 0.122 0 0 0 53.183 4.245 A 1.019 1.019 0 0 0 52.613 3.751 Q 51.825 3.301 50.925 2.776 Q 49.05 1.951 48.525 1.201 A 0.902 0.902 0 0 1 48.332 0.699 A 0.734 0.734 0 0 1 48.9 0.076 Q 48.975 0.076 49.125 0.038 Q 49.275 0.001 49.575 0.001 Q 50.175 0.001 51.263 0.113 Q 52.35 0.226 54 0.526 Q 56.25 0.901 57.563 1.313 Q 58.875 1.726 59.513 2.176 Q 60.15 2.626 60.225 3.226 A 2.532 2.532 0 0 1 60.244 3.54 A 4.27 4.27 0 0 1 60.075 4.651 Q 59.925 5.626 59.438 6.001 Q 58.95 6.376 57.825 6.751 A 14.459 14.459 0 0 1 54.205 7.234 A 50.91 50.91 0 0 1 52.05 7.276 A 31.732 31.732 0 0 1 48.603 7.145 A 1.389 1.389 0 0 1 47.775 6.901 Q 47.775 6.751 48.375 6.376 Q 48.975 6.001 50.25 5.626 Z"/></g></svg>