<svg width="36.479" height="31.4" viewBox="0 0 36.479 31.4" xmlns="http://www.w3.org/2000/svg"><g id="svgGroup" stroke-linecap="round" fill-rule="nonzero" font-size="9pt" stroke="#000000" stroke-width="0.5" fill="#000000" style="stroke:#000000;stroke-width:0.5;fill:#000000"><path d="M 0.04 16.96 Q 0.36 16.28 2.08 14.44 Q 2.48 13.92 2.48 13.76 Q 2.48 13.68 2.66 13.5 Q 2.84 13.32 3.18 12.92 Q 3.52 12.52 4 11.84 Q 4.48 11.16 5.08 10.08 Q 5.64 9.04 6.06 8.14 Q 6.48 7.24 6.76 6.56 Q 7.32 5.16 7.38 3.98 A 3.494 3.494 0 0 0 7.385 3.803 A 1.649 1.649 0 0 0 6.72 2.32 A 1.486 1.486 0 0 1 6.277 1.815 A 0.032 0.032 0 0 1 6.28 1.8 Q 6.32 1.72 6.84 1.6 Q 7.24 1.52 7.32 1.52 Q 7.76 1.52 8.36 2.28 Q 9.16 3.12 9.18 4.44 A 5.014 5.014 0 0 1 9.181 4.516 A 10.481 10.481 0 0 1 8.52 7.76 Q 8.2 8.76 7.8 9.64 Q 7.4 10.52 7.02 11.24 Q 6.64 11.96 6.32 12.44 Q 6 12.92 5.84 13.12 A 0.578 0.578 0 0 0 5.671 13.476 A 0.275 0.275 0 0 0 5.7 13.6 Q 5.8 13.8 6.4 14.32 Q 6.96 14.8 7.18 15.26 Q 7.4 15.72 7.48 16.12 Q 7.56 16.52 7.62 16.76 Q 7.68 17 7.88 17 Q 8.12 17 8.72 16.56 Q 9.4 16 10.82 15.2 Q 12.24 14.4 14.32 13.12 Q 14.72 12.88 15.44 12.54 Q 16.16 12.2 17.16 11.68 Q 18.68 10.88 19.04 10.52 Q 19.2 10.36 19.46 9.86 Q 19.72 9.36 19.98 8.76 Q 20.24 8.16 20.42 7.64 Q 20.6 7.12 20.6 6.88 Q 20.6 6.68 20.44 6.28 Q 20.28 5.88 20 5.32 Q 19.28 3.8 19.28 3.2 Q 19.28 2.52 19.64 2.1 Q 20 1.68 20.54 1.44 Q 21.08 1.2 21.7 1.1 Q 22.32 1 22.84 1 Q 23.28 1 23.48 1.14 Q 23.68 1.28 23.92 1.64 Q 24.08 1.88 24.16 2.08 Q 24.24 2.28 24.24 2.52 Q 24.24 2.76 24.16 3.12 Q 24.08 3.48 23.88 4.08 Q 23.68 4.96 23.5 5.58 Q 23.32 6.2 23.24 6.56 A 1.41 1.41 0 0 0 23.233 6.701 A 0.81 0.81 0 0 0 23.38 7.2 Q 23.56 7.44 24.24 7.76 Q 25.24 8.4 26.16 8.4 Q 27.08 8.4 27.54 8.9 Q 28 9.4 27.92 10 Q 27.88 10.48 27.56 10.58 Q 27.24 10.68 25.88 10.68 Q 24.88 10.68 24.18 10.82 Q 23.48 10.96 23.02 11.12 Q 22.56 11.28 22.28 11.4 Q 22 11.52 21.8 11.52 Q 21.36 11.52 21 12.12 A 13.729 13.729 0 0 0 20.363 13.579 A 99.187 99.187 0 0 0 20 14.5 A 464.125 464.125 0 0 0 18.44 18.592 A 1092.169 1092.169 0 0 0 17.76 20.4 A 2708.506 2708.506 0 0 0 15.971 25.182 A 1047.167 1047.167 0 0 0 15.54 26.34 A 119.618 119.618 0 0 0 14.741 28.534 A 8.671 8.671 0 0 0 14.64 28.84 Q 14.52 29.24 14.3 29.7 Q 14.08 30.16 13.86 30.54 Q 13.64 30.92 13.44 31.16 Q 13.24 31.4 13.16 31.4 Q 13 31.36 12.66 31.22 Q 12.32 31.08 11.96 30.92 Q 11.6 30.76 11.3 30.58 Q 11 30.4 10.88 30.28 Q 10.76 30.12 10.76 29.64 Q 10.76 29.16 10.84 28.5 Q 10.92 27.84 11.02 27.1 Q 11.12 26.36 11.16 25.72 A 3.948 3.948 0 0 1 11.392 24.282 A 0.021 0.021 0 0 1 11.4 24.28 Q 11.52 24.28 11.8 25.36 Q 12.12 26.56 12.28 26.72 A 0.019 0.019 0 0 0 12.294 26.727 Q 12.521 26.727 14.415 22.114 A 298.337 298.337 0 0 0 15.08 20.48 A 349.696 349.696 0 0 1 16.876 16.005 A 121.026 121.026 0 0 1 17.06 15.56 A 10.17 10.17 0 0 1 17.879 13.837 A 0.15 0.15 0 0 1 17.92 13.8 Q 18.16 13.6 18.16 13.4 Q 18.16 13.2 17.88 13.2 Q 17.56 13.2 15.04 14.48 Q 12.48 15.76 10.94 16.68 Q 9.4 17.6 8.56 18.28 Q 8.32 18.56 8.16 18.76 Q 8 18.96 7.94 19.18 Q 7.88 19.4 7.9 19.7 Q 7.92 20 8.04 20.52 Q 8.12 21.28 8.18 22.02 Q 8.24 22.76 8.24 23.48 Q 8.24 24.44 8.16 24.74 Q 8.08 25.04 7.48 25.2 Q 7.16 25.28 7.04 25.28 Q 6.48 25.28 6.04 24.92 Q 5.6 24.56 5.52 24 A 4.999 4.999 0 0 1 5.493 23.378 A 21.161 21.161 0 0 1 5.5 22.88 Q 5.52 22.04 5.6 20.64 A 97.178 97.178 0 0 0 5.651 18.052 Q 5.655 16.814 5.591 16.415 A 0.768 0.768 0 0 0 5.56 16.28 Q 5.36 15.84 5.12 15.84 Q 4.88 15.84 3.36 17.28 A 5.075 5.075 0 0 1 1.379 18.712 A 0.598 0.598 0 0 1 1.28 18.72 Q 1 18.72 0.74 18.52 Q 0.48 18.32 0.3 18.06 Q 0.12 17.8 0.04 17.5 Q -0.04 17.2 0.04 16.96 Z M 20.64 4.28 Q 21.12 5.2 21.28 5.2 Q 21.52 5.2 21.92 3.96 A 4.264 4.264 0 0 0 22.205 2.756 A 0.35 0.35 0 0 0 22.12 2.48 Q 22 2.36 21.72 2.36 Q 21.36 2.36 20.92 2.54 Q 20.48 2.72 20.36 3 A 0.569 0.569 0 0 0 20.317 3.232 A 2.682 2.682 0 0 0 20.64 4.28 Z M 22.44 9.36 Q 22.76 9.28 22.88 8.98 A 0.314 0.314 0 0 0 22.906 8.866 A 0.264 0.264 0 0 0 22.56 8.68 Q 22.12 8.68 22.12 9.04 Q 22.12 9.4 22.36 9.4 Q 22.4 9.36 22.44 9.36 Z M 30.92 12.32 L 31.76 13.44 Q 32.2 14.04 32.72 15.08 Q 34.4 18 35 19.04 Q 35.6 20.08 36.08 21.64 A 7 7 0 0 1 36.479 23.84 A 4.257 4.257 0 0 1 36.28 25.16 Q 36.2 25.4 36 25.6 Q 35.8 25.8 35.34 25.98 Q 34.88 26.16 34.12 26.34 Q 33.36 26.52 32.16 26.64 Q 29.72 26.92 27.84 27.2 Q 25.96 27.48 23.96 27.48 Q 23.28 27.48 22.88 27.46 Q 22.48 27.44 22.2 27.38 Q 21.92 27.32 21.74 27.14 Q 21.56 26.96 21.32 26.68 Q 20.96 26.36 20.76 26.08 Q 20.56 25.8 20.48 25.6 A 0.987 0.987 0 0 1 20.434 25.254 A 10.203 10.203 0 0 1 20.72 23.36 Q 20.92 22.44 21.12 21.02 Q 21.32 19.6 21.6 17.64 Q 22.036 14.592 22.036 13.599 A 1.535 1.535 0 0 0 22 13.2 Q 21.88 12.84 21.98 12.64 Q 22.08 12.44 22.2 12.44 Q 22.4 12.44 22.52 12.84 Q 22.6 13.12 22.68 13.76 Q 22.76 14.4 22.88 15.44 Q 23 16.48 23.02 17.58 Q 23.04 18.68 22.96 19.84 Q 22.88 21.04 22.84 22 Q 22.8 22.96 22.8 23.64 Q 22.8 24.44 22.88 24.68 Q 22.96 24.92 23.64 24.92 Q 23.76 24.92 23.9 24.9 Q 24.04 24.88 24.24 24.88 Q 25.76 24.88 27.42 24.58 Q 29.08 24.28 30.88 24.16 Q 32.68 24.04 33.38 23.76 Q 34.08 23.48 34.08 23.24 Q 34.08 22.6 33.78 21.36 Q 33.48 20.12 33.06 18.74 Q 32.64 17.36 32.2 16.1 Q 31.76 14.84 31.52 14.24 Q 30.88 12.56 30.92 12.32 Z M 26.8 3 Q 28.28 2.48 28.32 2.32 A 0.065 0.065 0 0 0 28.364 2.264 A 0.543 0.543 0 0 0 28.06 2 Q 27.64 1.76 27.16 1.48 Q 26.16 1.04 25.88 0.64 A 0.481 0.481 0 0 1 25.777 0.373 A 0.391 0.391 0 0 1 26.08 0.04 Q 26.12 0.04 26.2 0.02 Q 26.28 0 26.44 0 Q 26.76 0 27.34 0.06 Q 27.92 0.12 28.8 0.28 Q 30 0.48 30.7 0.7 Q 31.4 0.92 31.74 1.16 Q 32.08 1.4 32.12 1.72 Q 32.16 2.04 32.04 2.48 Q 31.96 3 31.7 3.2 Q 31.44 3.4 30.84 3.6 A 11.047 11.047 0 0 1 27.83 3.88 A 35.297 35.297 0 0 1 27.76 3.88 A 9.998 9.998 0 0 1 25.598 3.749 A 0.213 0.213 0 0 1 25.48 3.68 Q 25.48 3.6 25.8 3.4 Q 26.12 3.2 26.8 3 Z"/></g></svg>